<svg xmlns="http://www.w3.org/2000/svg" xmlns:xlink="http://www.w3.org/1999/xlink" width="500" height="500" viewBox="0 0 500 500"><g><g transform="translate(-4439 -2672)"><g><path d="M4686.546,2987.6l-4.486,44.124,14.829.065L4692.4,2987.6Z" fill="#454545"/><circle cx="29.803" cy="29.803" r="29.803" transform="translate(4659.672 3007.49)" fill="#454545"/><circle cx="11.603" cy="11.603" r="11.603" transform="translate(4651.461 3028.086)" fill="#454545"/><circle cx="16.183" cy="16.183" r="16.183" transform="translate(4628.745 3023.506)" fill="#454545"/><circle cx="11.603" cy="11.603" r="11.603" transform="translate(4704.281 3028.086)" fill="#454545"/><circle cx="16.183" cy="16.183" r="16.183" transform="translate(4717.838 3023.506)" fill="#454545"/><circle cx="11.443" cy="11.443" r="11.443" transform="translate(4740.739 3033.851)" fill="#454545"/><circle cx="11.443" cy="11.443" r="11.443" transform="translate(4615.324 3033.851)" fill="#454545"/></g><rect width="8.444" height="82.892" stroke-width="0.964" fill="none" stroke="#fff" stroke-linejoin="bevel" transform="translate(4685.117 2897.62)"/><rect width="2.221" height="6.689" stroke-width="0.964" fill="#454545" stroke="#fff" stroke-linejoin="bevel" transform="translate(4685.117 2898.843)"/><rect width="2.221" height="6.689" stroke-width="0.964" fill="#454545" stroke="#fff" stroke-linejoin="bevel" transform="translate(4691.34 2898.842)"/><path d="M4693.649,2963.548l-1.023-2.893h-.555l-2.256,19.205a.421.421,0,0,1-.432.384v4.4h4.12v-1.11l.672-.35Z" fill="#454545" stroke="#fff" stroke-linejoin="bevel" stroke-width="0.964"/><path d="M4688.952,2979.86l-2.257-19.205h-.555l-1.023,2.893-.526,19.635.672.35v1.11h4.12v-4.4A.42.42,0,0,1,4688.952,2979.86Z" fill="#454545" stroke="#fff" stroke-linejoin="bevel" stroke-width="0.964"/><path d="M4684.879,2983.379l.642-3.26a.679.679,0,0,1,.667-.549h.3a1.559,1.559,0,0,1,1.479,1.066l1.047,3.141h.365" fill="none" stroke="#fff" stroke-linejoin="bevel" stroke-width="0.964"/><path d="M4693.888,2983.379l-.642-3.26a.681.681,0,0,0-.667-.549h-.3a1.558,1.558,0,0,0-1.479,1.066l-1.048,3.141h-.365" fill="none" stroke="#fff" stroke-linejoin="bevel" stroke-width="0.964"/><path d="M4687.558,2979.993a5.948,5.948,0,0,0-.585,2.981h1.777" fill="none" stroke="#fff" stroke-linejoin="bevel" stroke-width="0.964"/><path d="M4691.209,2979.993a5.948,5.948,0,0,1,.585,2.981h-1.778" fill="none" stroke="#fff" stroke-linejoin="bevel" stroke-width="0.964"/><path d="M4693.211,2985.1h-7.6l-.351-.453h8.3Z" fill="none" stroke="#fff" stroke-linejoin="bevel" stroke-width="0.964"/><path d="M4686.008,2985.1a5.248,5.248,0,0,0-.592,2.5h1.765a5.243,5.243,0,0,0-.592-2.5Z" fill="#454545" stroke="#fff" stroke-linejoin="bevel" stroke-width="0.964"/><line x2="1.847" transform="translate(4685.375 2986.125)" fill="#454545" stroke="#fff" stroke-linejoin="bevel" stroke-width="0.964"/><path d="M4692.806,2985.1a5.248,5.248,0,0,1,.592,2.5h-1.766a5.243,5.243,0,0,1,.592-2.5Z" fill="#454545" stroke="#fff" stroke-linejoin="bevel" stroke-width="0.964"/><line x1="1.847" transform="translate(4691.592 2986.125)" fill="#454545" stroke="#fff" stroke-linejoin="bevel" stroke-width="0.964"/><path d="M4688.08,2985.1a5.243,5.243,0,0,0-.592,2.5h1.765a5.237,5.237,0,0,0-.592-2.5Z" fill="#454545" stroke="#fff" stroke-linejoin="bevel" stroke-width="0.964"/><line x2="1.847" transform="translate(4687.447 2986.125)" fill="#454545" stroke="#fff" stroke-linejoin="bevel" stroke-width="0.964"/><path d="M4690.152,2985.1a5.248,5.248,0,0,0-.592,2.5h1.766a5.243,5.243,0,0,0-.592-2.5Z" fill="#454545" stroke="#fff" stroke-linejoin="bevel" stroke-width="0.964"/><line x2="1.847" transform="translate(4689.52 2986.125)" fill="#454545" stroke="#fff" stroke-linejoin="bevel" stroke-width="0.964"/><line x2="8.444" transform="translate(4685.117 2943.445)" fill="none" stroke="#fff" stroke-linejoin="bevel" stroke-width="0.964"/><line y2="29.046" transform="translate(4689.339 2910.805)" fill="none" stroke="#fff" stroke-linejoin="bevel" stroke-width="0.964"/><line y2="47.122" transform="translate(4679.898 2863.653)" fill="none" stroke="#828f97" stroke-miterlimit="10" stroke-width="1.286"/><line y2="47.122" transform="translate(4699.051 2863.653)" fill="none" stroke="#828f97" stroke-miterlimit="10" stroke-width="1.286"/><line y2="47.122" transform="translate(4679.898 2956.432)" fill="none" stroke="#828f97" stroke-miterlimit="10" stroke-width="1.286"/><line y2="47.122" transform="translate(4699.051 2956.432)" fill="none" stroke="#828f97" stroke-miterlimit="10" stroke-width="1.286"/><path d="M4688.4,2867.2a20.285,20.285,0,0,0-2.337,9.673l6.831.033a20.259,20.259,0,0,0-2.245-9.7Z" fill="#454545" stroke="#fff" stroke-linejoin="bevel" stroke-width="0.964"/><rect width="8.441" height="33.403" stroke-width="0.964" fill="none" stroke="#fff" stroke-linejoin="bevel" transform="translate(4685.254 2830.25)"/><line x2="0.001" y2="18.061" transform="translate(4689.473 2830.25)" fill="#454545" stroke="#fff" stroke-linejoin="bevel" stroke-width="0.964"/><line x2="1.658" transform="translate(4688.646 2849.425)" fill="#454545" stroke="#fff" stroke-linejoin="bevel" stroke-width="0.964"/><rect width="2.249" height="3.557" stroke-width="0.964" fill="#454545" stroke="#fff" stroke-linejoin="bevel" transform="translate(4688.398 2863.653)"/><path d="M4687.484,2880.581c0,1.1,1.99,14.555,1.99,14.555s1.991-13.456,1.991-14.555a1.99,1.99,0,1,0-3.981,0Z" fill="#fff" opacity="0.5"/><path d="M4688.453,2879.611c0,.564,1.021,10.218,1.021,10.218s1.022-9.654,1.022-10.218a1.021,1.021,0,0,0-2.043,0Z" fill="#fff" opacity="0.35"/><rect width="11.333" height="11.886" stroke-width="0.964" fill="none" stroke="#fff" stroke-linejoin="bevel" transform="translate(4683.808 2818.379)"/><path d="M4696.738,2823.391l-1.6-3.867v10.741h2.157v-4.052A7.4,7.4,0,0,0,4696.738,2823.391Z" fill="#454545" stroke="#fff" stroke-linejoin="bevel" stroke-width="0.964"/><path d="M4682.211,2823.391l1.6-3.867v10.741h-2.157v-4.052A7.4,7.4,0,0,1,4682.211,2823.391Z" fill="#454545" stroke="#fff" stroke-linejoin="bevel" stroke-width="0.964"/><ellipse cx="0.808" cy="1.297" rx="0.808" ry="1.297" transform="translate(4692.113 2824.467)" fill="#454545" stroke="#fff" stroke-linejoin="bevel" stroke-width="0.964"/><path d="M4689.475,2819.524l-1.227,1.792v8.949h2.453v-8.949Z" fill="none" stroke="#fff" stroke-linejoin="round" stroke-width="0.964"/><line y2="10.726" transform="translate(4689.475 2819.524)" fill="none" stroke="#fff" stroke-miterlimit="10" stroke-width="0.964"/><path d="M4691.469,2807.4h.6c-.751-1.279-1.623-2.134-2.595-2.134-1.28,0-2.386,1.483-3.272,3.465A10.92,10.92,0,0,1,4691.469,2807.4Z" fill="none" stroke="#fff" stroke-miterlimit="10" stroke-width="0.964"/><path d="M4695.144,2818.379c0-1.557-1.137-7.677-3.074-10.976h-.6a10.914,10.914,0,0,0-5.263,1.33,32.572,32.572,0,0,0-2.4,9.646Z" fill="none" stroke="#fff" stroke-miterlimit="10" stroke-width="0.964"/><path d="M4683.808,2818.379h11.336a9.058,9.058,0,0,0-.083-1.042h-11.17A9.058,9.058,0,0,0,4683.808,2818.379Z" fill="#454545" stroke="#fff" stroke-linejoin="bevel" stroke-width="0.964"/><line x2="10.117" transform="translate(4684.421 2814.419)" fill="none" stroke="#fff" stroke-linejoin="bevel" stroke-width="0.964"/><line x1="0.749" y1="7.008" transform="translate(4691.066 2807.411)" fill="none" stroke="#fff" stroke-linejoin="bevel" stroke-width="0.964"/><line y1="6.404" x2="0.684" transform="translate(4687.137 2808.015)" fill="none" stroke="#fff" stroke-linejoin="bevel" stroke-width="0.964"/><path d="M4690.7,2813.277h-2.453l.318-2.363h1.817Z" fill="#454545"/><path d="M4690.7,2813.277h-2.453l.318-2.363h1.817Z" fill="none" stroke="#fff" stroke-linejoin="bevel" stroke-width="0.964"/><path d="M4690.7,2813.277h-2.453l.318-2.363h1.817Z" fill="none" stroke="#fff" stroke-linejoin="bevel" stroke-width="0.964"/></g></g></svg>